<svg xmlns="http://www.w3.org/2000/svg" width="184.1864" height="43.118" viewBox="0 0 184.1864 43.118">
  <defs>
    <style>
      .a {
        fill: #dedede;
      }

      .b {
        fill: #fff;
      }

      .c {
        fill: #f5f5f5;
      }

      .d {
        fill: #373737;
      }
    </style>
  </defs>
  <path class="a" d="M83.1681,0h18.393c19.845,0,42.388,16.087,42.388,35.932a7.186,7.186,0,0,1-7.186,7.186h-89.04a7.186,7.186,0,0,1-7.186-7.186h0C40.5371,16.087,63.3231,0,83.1681,0Z"/>
  <path class="b" d="M83.3931,0H101.33c19.353,0,41.338,14.536,41.338,32.468a6.7659,6.7659,0,0,1-7.009,6.494H48.8261a6.7659,6.7659,0,0,1-7.009-6.494C41.8171,14.536,64.0391,0,83.3931,0Z"/>
  <path class="c" d="M85.7991,1.575H98.411c5.3371,0,10.2144,3.8709,10.2144,12.3275,0,2.1142-2.5953,6.65-5.5068,6.8126H81.2292c-2.7739,0-5.3691-4.6984-5.3691-6.8126C75.86,5.4459,80.462,1.575,85.7991,1.575Z"/>
  <path class="d" d="M110.49,24.0365a2.999,2.999,0,0,0-3.7819-1.92l-.0023.0007a10.6807,10.6807,0,0,1-10.3985-2.4025h6.78A4.7132,4.7132,0,0,0,106.15,17.46a7.3864,7.3864,0,0,0,1.4755-3.5573c0-3.6686-.9812-6.6609-2.8375-8.6533A8.585,8.585,0,0,0,98.411,2.575H85.7991a8.112,8.112,0,0,0-6.2268,2.6605c-1.7744,1.9766-2.7122,4.9736-2.7122,8.667a7.6963,7.6963,0,0,0,1.4667,3.63c.9455,1.3666,2.03,2.1825,2.9023,2.1825h7.6771a10.6819,10.6819,0,0,1-10.3994,2.4015A3,3,0,0,0,76.6416,27.82h0a16.1955,16.1955,0,0,0,5.059.8311A17.2111,17.2111,0,0,0,92.6062,24.429a17.2113,17.2113,0,0,0,10.9069,4.2228,16.19,16.19,0,0,0,5.0581-.8311,3,3,0,0,0,1.9189-3.7839Z"/>
  <path class="d" d="M181.7111,7.422l-41.5-7.375A3,3,0,1,0,139.16,5.9542l41.5,7.375a3,3,0,1,0,1.0507-5.9072Z"/>
  <path class="d" d="M2.4753,7.422l41.5-7.375A3,3,0,1,1,45.026,5.9542l-41.5,7.375A3,3,0,1,1,2.4753,7.422Z"/>
</svg>
